<svg width="161" height="221" viewBox="0 0 161 221" fill="none" xmlns="http://www.w3.org/2000/svg">
<path fill-rule="evenodd" clip-rule="evenodd" d="M157.935 106.502C157.935 150.205 123.266 185.635 80.501 185.635C37.7362 185.635 3.06799 150.205 3.06799 106.502C3.06799 62.7971 37.7362 27.3674 80.501 27.3674C123.266 27.3674 157.935 62.7971 157.935 106.502Z" fill="#D33833"/>
<path d="M6.2234 126.1C6.2234 126.1 0.617757 43.5778 76.7243 41.2197L71.4149 32.378L30.1172 46.2303L18.3176 59.7873L7.99331 79.5345L2.09314 102.523L3.86305 117.848" fill="#EF3D3A"/>
<path d="M27.4658 52.5186C13.88 66.4071 5.4729 85.5831 5.4729 106.797C5.4729 128.007 13.88 147.185 27.4658 161.071C41.0582 174.957 59.7905 183.526 80.4999 183.526C101.21 183.526 119.943 174.957 133.535 161.071C147.12 147.185 155.528 128.007 155.528 106.797C155.528 85.5831 147.12 66.4071 133.535 52.5186C119.943 38.6353 101.21 30.0667 80.4999 30.065C59.7905 30.0667 41.0582 38.6353 27.4658 52.5186ZM24.0269 164.43C9.58827 149.677 0.661987 129.288 0.661987 106.797C0.661987 84.3028 9.58827 63.9155 24.0269 49.1613C38.4621 34.4045 58.4441 25.2577 80.4999 25.2604C102.556 25.2577 122.54 34.4045 136.973 49.1613C151.412 63.9155 160.34 84.3046 160.338 106.797C160.34 129.288 151.412 149.677 136.973 164.43C122.54 179.186 102.556 188.332 80.4999 188.332C58.4441 188.332 38.4621 179.186 24.0269 164.43Z" fill="#231F20"/>
<path fill-rule="evenodd" clip-rule="evenodd" d="M113.096 106.94L101.296 108.709L85.3671 110.477L75.0422 110.771L65.0131 110.477L57.343 108.119L50.5583 100.751L45.2485 85.7201L44.0687 82.4779L36.9891 80.1207L32.8592 73.3417L29.9094 63.6158L33.1547 55.0685L40.8238 52.416L47.0184 55.3638L49.9689 61.8475L53.5087 61.2577L54.6882 59.7847L53.5087 53.0057L53.2131 44.4584L54.983 32.6697L54.9139 25.9359L60.2928 17.3444L69.7324 10.5654L86.2521 3.49202L104.541 6.14454L120.47 17.6388L127.845 29.4275L132.565 37.9748L133.744 59.1949L130.204 77.4682L123.715 93.6777L117.52 102.225" fill="#F0D6B7"/>
<path fill-rule="evenodd" clip-rule="evenodd" d="M103.066 157.927L60.8829 159.695V166.769L64.4227 191.526L62.6528 193.589L33.1547 183.568L31.0892 180.031L28.1395 146.728L21.3558 126.687L19.8804 121.971L43.4786 105.762L50.8538 102.814L57.343 110.771L62.9476 115.782L69.4379 117.845L72.3873 118.729L75.9271 134.054L78.582 137.296L85.3671 134.939L80.6468 144.076L106.311 156.159L103.066 157.927Z" fill="#335061"/>
<path fill-rule="evenodd" clip-rule="evenodd" d="M33.1548 55.0685L40.8238 52.4159L47.0185 55.3638L49.9689 61.8474L53.5088 61.2577L54.3937 57.721L52.6238 50.9429L54.3937 34.7325L52.9183 25.8907L58.228 19.7015L69.7325 10.5654L66.4875 6.1445L50.2634 14.1021L43.4787 19.4071L39.644 27.6591L33.7442 35.6166L31.9742 45.0481L33.1548 55.0685Z" fill="#6D6B6D"/>
<path fill-rule="evenodd" clip-rule="evenodd" d="M45.2485 27.3647C45.2485 27.3647 49.6733 16.4602 67.3724 11.1552C85.0716 5.85014 68.2574 7.32317 68.2574 7.32317L49.0839 14.6919L41.7087 22.0597L38.4645 27.9545L45.2485 27.3647Z" fill="#DCD9D8"/>
<path fill-rule="evenodd" clip-rule="evenodd" d="M36.399 53.0057C36.399 53.0057 30.2043 32.3744 53.8033 29.4275L52.9183 25.8908L36.6946 29.7228L31.9742 45.0481L33.1548 55.0685L36.399 53.0057Z" fill="#DCD9D8"/>
<path fill-rule="evenodd" clip-rule="evenodd" d="M45.8386 80.4151L49.701 76.676C49.701 76.676 51.4443 76.8784 51.7388 78.9412C52.0333 81.0049 52.9183 99.5725 65.6025 109.594C66.7595 110.508 56.1636 108.119 56.1636 108.119L46.7236 93.3833" fill="#F7E4CD"/>
<path fill-rule="evenodd" clip-rule="evenodd" d="M100.118 74.8157C100.118 74.8157 100.805 65.882 103.213 66.569C105.621 67.256 105.621 69.6618 105.621 69.6618C105.621 69.6618 99.7735 73.4417 100.118 74.8157Z" fill="#F7E4CD"/>
<path d="M124.6 42.1012C124.6 42.1012 119.738 43.1268 119.29 47.4062C118.842 51.6865 124.6 48.2904 125.485 47.996" fill="#F7E4CD"/>
<path d="M88.9069 42.3965C88.9069 42.3965 82.4166 43.2807 82.4166 47.4062C82.4166 51.5327 89.792 51.2382 91.8566 49.4699" fill="#F7E4CD"/>
<path fill-rule="evenodd" clip-rule="evenodd" d="M48.7883 61.553C48.7883 61.553 37.5784 54.7741 36.3989 61.2586C35.2191 67.7422 32.5635 72.4584 38.1689 79.2365L34.3342 78.0579L30.7943 68.9217L29.6149 60.08L36.3989 53.0057L44.0687 53.5955L48.4935 57.1322L48.7883 61.553Z" fill="#F7E4CD"/>
<path fill-rule="evenodd" clip-rule="evenodd" d="M54.0981 42.9855C54.0981 42.9855 59.113 17.05 84.4822 12.0394C105.368 7.91474 116.34 12.9236 120.47 17.6389C120.47 17.6389 101.886 -4.46458 84.1866 2.3135C66.4875 9.09245 53.5087 21.4709 53.8033 29.4276C54.3056 42.9802 54.0981 42.9855 54.0981 42.9855Z" fill="#F7E4CD"/>
<path fill-rule="evenodd" clip-rule="evenodd" d="M122.535 20.5857C122.535 20.5857 113.981 20.2913 113.686 27.9544C113.686 27.9544 113.685 29.133 114.275 30.3116C114.275 30.3116 121.061 22.6485 125.19 26.775" fill="#F7E4CD"/>
<path fill-rule="evenodd" clip-rule="evenodd" d="M85.0768 31.1101C85.0768 31.1101 83.6042 19.348 73.5672 26.1862C67.0776 30.607 67.668 36.7963 68.8475 37.9749C70.0273 39.1543 69.7065 41.5284 70.6047 39.8988C71.5024 38.2693 71.2068 32.9643 74.4521 31.4912C77.6971 30.0173 83.0165 28.371 85.0768 31.1101Z" fill="#F7E4CD"/>
<path fill-rule="evenodd" clip-rule="evenodd" d="M57.343 110.771L29.6149 123.15C29.6149 123.15 41.1193 168.832 35.2191 182.979L31.0892 181.506L30.7944 164.117L23.1257 131.108L19.8804 121.971L48.7883 102.52L57.343 110.771Z" fill="#49728B"/>
<path fill-rule="evenodd" clip-rule="evenodd" d="M60.1943 136.039L64.1282 140.834V158.518H59.4079C59.4079 158.518 58.8185 146.139 58.8185 144.665C58.8185 143.191 59.4079 137.886 59.4079 137.886" fill="#49728B"/>
<path fill-rule="evenodd" clip-rule="evenodd" d="M60.2928 161.17L47.0184 161.759L50.8538 164.412L60.2928 165.885" fill="#49728B"/>
<path fill-rule="evenodd" clip-rule="evenodd" d="M105.721 158.222L116.635 157.928L119.29 185.043L108.081 186.516L105.721 158.222Z" fill="#335061"/>
<path fill-rule="evenodd" clip-rule="evenodd" d="M108.671 158.222L125.19 157.338C125.19 157.338 131.974 140.244 131.974 139.36C131.974 138.476 137.874 114.603 137.874 114.603L124.6 100.752L121.945 98.3939L114.866 105.467V132.877L108.671 158.222Z" fill="#335061"/>
<path fill-rule="evenodd" clip-rule="evenodd" d="M116.045 156.159L105.721 158.222L107.196 166.475C111.03 168.244 117.52 163.527 117.52 163.527" fill="#49728B"/>
<path fill-rule="evenodd" clip-rule="evenodd" d="M116.341 104.583L136.989 119.909L137.58 112.835L121.945 98.3939L116.341 104.583Z" fill="#49728B"/>
<path fill-rule="evenodd" clip-rule="evenodd" d="M70.5299 216.286L64.4226 191.526L61.3851 173.256L60.8828 159.695L88.5242 158.225L105.721 158.222L104.158 189.171L106.812 213.044L106.518 217.465L84.0995 219.233L70.5299 216.286Z" fill="white"/>
<path fill-rule="evenodd" clip-rule="evenodd" d="M101.886 157.928C101.886 157.928 100.412 188.58 104.836 210.389C104.836 210.389 95.9867 215.989 83.0067 217.462L107.786 216.578L110.735 214.81L107.196 166.475L106.311 156.159" fill="#DCD9D8"/>
<path fill-rule="evenodd" clip-rule="evenodd" d="M119.793 182.687L131.297 179.445L153.126 178.267L156.371 168.246L150.471 150.857L143.687 149.973L134.247 152.92L125.19 157.338L120.382 156.457L116.635 157.928" fill="white"/>
<path fill-rule="evenodd" clip-rule="evenodd" d="M119.585 176.79C119.585 176.79 127.254 173.254 128.435 173.549L125.19 157.338L129.025 155.865C129.025 155.865 131.68 171.19 131.68 172.959C131.68 172.959 148.198 173.843 149.673 173.843C149.673 173.843 153.213 167.064 152.328 159.991L155.573 169.422L155.868 174.727L151.149 181.8L145.839 182.979L136.989 182.685L134.04 178.854L123.715 180.327L120.47 181.506" fill="#DCD9D8"/>
<path d="M107.993 155.868L101.504 139.363L94.7186 129.637C94.7186 129.637 96.193 125.511 98.2585 125.511C100.324 125.511 105.043 125.511 105.043 125.511L111.533 127.869L110.943 138.773L107.993 155.868Z" fill="white"/>
<path fill-rule="evenodd" clip-rule="evenodd" d="M109.261 150.265C109.261 150.265 101.001 134.35 101.001 131.992C101.001 131.992 102.475 128.456 104.541 129.34C106.606 130.224 111.031 132.581 111.031 132.581V126.982L101.001 124.918L94.2168 125.802L105.721 152.917L108.081 153.213" fill="#DCD9D8"/>
<path d="M73.1851 111.365L65.0131 110.477L57.343 108.119V110.771L61.0906 114.901L72.8899 120.206" fill="white"/>
<path fill-rule="evenodd" clip-rule="evenodd" d="M59.999 112.248C59.999 112.248 69.1441 116.08 72.0938 115.196L72.3873 118.729L64.1292 116.964L59.114 113.428L59.999 112.248Z" fill="#DCD9D8"/>
<path fill-rule="evenodd" clip-rule="evenodd" d="M119.761 126.514C114.756 126.367 110.234 125.773 106.274 124.657C106.543 123.036 106.04 121.444 106.444 120.276C107.548 119.482 109.397 119.495 111.065 119.308C109.623 118.6 107.596 118.32 105.932 118.729C105.893 117.603 105.388 116.906 105.081 116.025C107.896 115.022 114.539 108.443 118.276 110.621C120.057 111.657 120.813 117.576 120.951 120.454C121.066 122.841 120.735 125.25 119.761 126.514Z" fill="#D33833"/>
<path d="M119.761 126.514C114.756 126.367 110.234 125.773 106.274 124.657C106.543 123.036 106.04 121.444 106.444 120.276C107.548 119.482 109.397 119.495 111.065 119.308C109.623 118.6 107.596 118.32 105.932 118.729C105.893 117.603 105.388 116.906 105.081 116.025C107.896 115.022 114.539 108.443 118.276 110.621C120.057 111.657 120.813 117.576 120.951 120.454C121.066 122.841 120.735 125.25 119.761 126.514Z" stroke="#D33833" stroke-width="2.5"/>
<path fill-rule="evenodd" clip-rule="evenodd" d="M95.8257 118.339C95.8125 118.718 95.7965 119.099 95.7815 119.481C94.2187 120.506 91.6957 120.494 89.9806 121.356C92.5089 121.466 94.4992 122.075 96.2213 122.932C96.1833 123.886 96.147 124.838 96.1098 125.791C93.2452 127.75 90.6284 130.668 87.2557 132.505C85.661 133.374 80.0643 135.61 78.3677 135.215C77.4078 134.993 77.3213 133.802 76.9376 132.68C76.1201 130.278 74.2378 126.454 74.0736 122.838C73.8645 118.27 73.403 110.615 78.3297 111.556C82.3044 112.313 86.9272 114.143 90.0045 115.823C91.885 116.85 92.9726 118.12 95.8257 118.339Z" fill="#D33833"/>
<path d="M95.8257 118.339C95.8125 118.718 95.7965 119.099 95.7815 119.481C94.2187 120.506 91.6957 120.494 89.9806 121.356C92.5089 121.466 94.4992 122.075 96.2213 122.932C96.1833 123.886 96.147 124.838 96.1098 125.791C93.2452 127.75 90.6284 130.668 87.2557 132.505C85.661 133.374 80.0643 135.61 78.3677 135.215C77.4078 134.993 77.3213 133.802 76.9376 132.68C76.1201 130.278 74.2378 126.454 74.0736 122.838C73.8645 118.27 73.403 110.615 78.3297 111.556C82.3044 112.313 86.9272 114.143 90.0045 115.823C91.885 116.85 92.9726 118.12 95.8257 118.339V118.339Z" stroke="#D33833" stroke-width="2.5"/>
<path fill-rule="evenodd" clip-rule="evenodd" d="M98.6708 123.789C98.2337 121.301 97.7283 120.591 97.9239 118.42C104.566 113.996 105.812 126.02 98.6708 123.789Z" fill="#D33833"/>
<path d="M98.6708 123.789C98.2337 121.301 97.7283 120.591 97.9239 118.42C104.566 113.996 105.812 126.02 98.6708 123.789Z" stroke="#D33833" stroke-width="2.5"/>
<path fill-rule="evenodd" clip-rule="evenodd" d="M108.288 125.806C108.288 125.806 106.222 122.858 107.697 121.974C109.173 121.09 110.648 121.975 111.533 120.501C112.418 119.027 111.533 118.143 111.828 116.374C112.122 114.606 113.598 114.311 115.073 114.016C116.547 113.722 120.678 113.132 121.267 114.606L119.497 109.301L115.958 108.122L104.748 114.606L104.158 117.848V124.332" fill="#EF3D3A"/>
<path fill-rule="evenodd" clip-rule="evenodd" d="M77.3144 135.532C76.9601 130.932 76.585 126.339 76.1678 121.744C75.5434 114.883 77.8173 116.08 83.7701 116.08C84.6793 116.08 89.3682 117.163 89.7036 117.848C91.3124 121.131 87.0133 120.402 91.5567 122.878C95.3921 124.967 102.167 121.609 100.618 116.964C99.7505 115.931 96.0992 116.642 94.7903 115.964C92.4859 114.771 90.1815 113.577 87.8768 112.383C84.9447 110.863 78.1682 108.648 75.0422 110.771C67.1215 116.153 75.5421 129.601 78.3677 135.215" fill="#EF3D3A"/>
<path fill-rule="evenodd" clip-rule="evenodd" d="M85.0768 31.1101C77.0368 29.2392 73.0418 34.4717 70.6047 39.8988C68.4286 39.3718 69.2945 36.4152 69.8442 34.9085C71.2833 30.9545 77.0828 25.691 81.8215 26.4045C83.8607 26.7113 86.6203 28.5743 85.0768 31.1101Z" fill="#231F20"/>
<path fill-rule="evenodd" clip-rule="evenodd" d="M124.25 40.2578C124.377 40.2631 124.505 40.2675 124.632 40.2728C126.449 44.0438 128.021 48.0385 130.313 51.3674C128.778 54.9403 118.687 58.1022 118.842 51.6866C121.025 50.7335 124.792 51.4921 126.727 50.2746C125.608 47.2074 123.994 44.5964 124.25 40.2578Z" fill="#231F20"/>
<path fill-rule="evenodd" clip-rule="evenodd" d="M89.1929 40.3559C90.9168 43.5132 91.4779 46.8307 93.9283 49.217C95.0318 50.2913 97.1779 51.6008 96.1141 54.5884C95.8655 55.2931 94.0487 56.8643 93 57.1728C89.169 58.3028 80.2423 57.4062 83.2653 52.6344C86.4335 52.782 90.692 54.6901 93.0602 52.3921C91.2416 49.4876 87.9995 43.7414 89.1929 40.3559Z" fill="#231F20"/>
<path fill-rule="evenodd" clip-rule="evenodd" d="M122.812 72.4461C117.044 76.1481 110.612 80.1738 101.161 79.2401C99.1416 77.4859 98.3717 73.5823 100.334 71.004C101.355 72.7582 100.713 75.9846 103.559 76.47C108.922 77.3869 115.164 73.1923 119.021 71.7264C121.413 67.6972 118.815 66.2153 116.66 63.6221C112.249 58.3091 106.331 51.7237 106.546 43.7697C108.329 42.4779 108.483 45.7414 108.739 46.3356C111.043 51.722 116.84 58.6106 121.071 63.2206C122.11 64.3559 123.82 65.4452 124.011 66.1959C124.559 68.3789 122.583 70.9943 122.812 72.4461Z" fill="#231F20"/>
<path fill-rule="evenodd" clip-rule="evenodd" d="M46.7696 68.5487C44.9616 67.5177 44.5312 62.9766 42.4087 62.8475C39.3753 62.6636 39.9284 68.7388 39.9405 72.2914C37.8526 70.3975 37.4854 64.5664 39.0193 61.5717C37.2711 60.714 36.4905 62.5177 35.5209 63.1534C36.7671 54.1084 48.7642 58.9581 46.7696 68.5487Z" fill="#231F20"/>
<path fill-rule="evenodd" clip-rule="evenodd" d="M126.485 76.2126C123.8 81.3187 120.002 86.9421 112.123 87.1057C111.963 85.4567 111.84 82.9474 112.132 81.9545C118.155 81.3762 121.874 78.3134 126.485 76.2126Z" fill="#231F20"/>
<path fill-rule="evenodd" clip-rule="evenodd" d="M88.7386 79.523C93.7638 82.1631 102.999 82.4469 109.829 82.2471C110.196 83.7422 110.187 85.5893 110.201 87.4124C101.421 87.8501 91.0408 85.6795 88.7386 79.523Z" fill="#231F20"/>
<path fill-rule="evenodd" clip-rule="evenodd" d="M87.7834 84.4461C91.2584 93.1632 103.202 92.1596 113.273 91.9191C112.83 93.0509 111.869 94.3877 110.674 94.8714C107.447 96.1835 98.5451 97.1791 94.0646 94.8015C91.223 93.2923 89.3973 89.882 87.8404 87.8829C87.0886 86.9174 83.3448 84.4514 87.7834 84.4461Z" fill="#231F20"/>
<path fill-rule="evenodd" clip-rule="evenodd" d="M122.393 132.53C118.315 139.508 114.413 146.675 109.575 152.83C111.604 146.871 112.472 136.899 112.778 129.296C117.021 127.312 120.655 129.742 122.393 132.53Z" fill="#81B0C4"/>
<path fill-rule="evenodd" clip-rule="evenodd" d="M144.336 157.61C139.771 158.523 136.563 162.956 132.109 162.672C134.557 159.224 138.846 157.771 144.336 157.61Z" fill="#231F20"/>
<path fill-rule="evenodd" clip-rule="evenodd" d="M146.351 164.748C142.629 165.141 138.258 165.743 134.484 165.433C136.271 162.706 143.155 163.647 146.351 164.748Z" fill="#231F20"/>
<path fill-rule="evenodd" clip-rule="evenodd" d="M147.64 170.903C143.458 170.994 138.259 170.91 134.284 170.577C136.635 168.054 144.927 169.641 147.64 170.903Z" fill="#231F20"/>
<path fill-rule="evenodd" clip-rule="evenodd" d="M114.524 187.746C115.124 192.994 117.206 198.311 116.945 204.058C114.633 204.837 113.304 205.518 110.206 205.514C109.988 200.63 109.334 193.163 109.529 188.507C111.053 188.608 113.3 187.42 114.524 187.746Z" fill="#DCD9D8"/>
<path fill-rule="evenodd" clip-rule="evenodd" d="M107.781 110.405C105.681 111.775 103.893 113.485 101.876 114.947C97.4036 115.168 94.9628 114.638 91.677 112.072C91.731 111.866 92.0611 111.958 92.0735 111.705C96.8611 113.837 102.947 110.837 107.781 110.405Z" fill="#F0D6B7"/>
<path fill-rule="evenodd" clip-rule="evenodd" d="M82.6483 143.012C83.9637 137.317 89.1179 134.367 93.7983 131.231C98.6293 137.357 101.567 145.235 104.803 152.837C97.1585 150.535 89.3479 146.799 82.6483 143.012Z" fill="#81B0C4"/>
<path fill-rule="evenodd" clip-rule="evenodd" d="M109.529 188.507C109.334 193.163 109.988 200.63 110.206 205.514C113.304 205.518 114.633 204.837 116.945 204.058C117.206 198.311 115.124 192.994 114.524 187.746C113.3 187.419 111.053 188.608 109.529 188.507ZM61.2867 162.027C63.3297 180.792 66.2887 196.566 71.716 213.183C83.7614 216.837 98.2823 217.155 108.929 213.858C106.974 204.479 107.828 193.062 106.686 183.053C105.825 175.531 106.264 167.962 105.083 160.288C92.1824 157.606 73.9474 159.661 61.2867 162.027ZM108.134 160.406C108.025 168.465 108.495 176.414 109.111 184.483C112.208 184.019 114.31 183.709 117.188 183.078C116.253 175.31 116.368 166.569 114.465 159.697C112.265 159.718 110.327 159.672 108.134 160.406ZM123.846 159.107C122.376 158.77 120.665 159.093 119.26 159.121C119.92 165.69 121.522 172.939 122.086 179.835C124.296 179.904 125.476 178.863 127.294 178.512C127.391 172.459 126.765 164.12 123.846 159.107ZM147.637 180.824C152.243 179.707 155.14 174.07 153.851 168.282C152.987 164.391 151.447 157.066 149.799 154.577C148.581 152.736 145.28 150.326 142.643 152.013C138.355 154.757 130.8 155.553 127.673 158.874C129.241 164.091 129.727 171.256 130.374 177.866C135.732 178.2 142.324 176.393 146.78 178.31C143.669 179.317 139.633 179.325 136.945 180.792C139.142 181.852 144.284 181.638 147.637 180.824ZM104.803 152.837C101.567 145.235 98.6293 137.357 93.7983 131.231C89.1178 134.367 83.9637 137.317 82.6483 143.012C89.3478 146.799 97.1585 150.535 104.803 152.837ZM112.778 129.296C112.472 136.899 111.604 146.871 109.575 152.83C114.413 146.675 118.315 139.508 122.393 132.53C120.655 129.742 117.021 127.312 112.778 129.296ZM103.737 126.086C101.904 125.889 100.349 128.191 97.9655 127.196C97.4195 127.799 96.9231 128.452 96.3664 129.041C101.63 135.379 104.022 144.371 108.088 151.819C110.269 144.664 110.018 136.826 110.498 129.017C107.501 129.207 105.838 126.309 103.737 126.086ZM97.9239 118.42C97.7284 120.591 98.2337 121.301 98.6708 123.789C105.812 126.02 104.566 113.996 97.9239 118.42ZM90.0045 115.823C86.9272 114.143 82.3044 112.313 78.3297 111.556C73.403 110.614 73.8645 118.27 74.0736 122.838C74.2377 126.454 76.12 130.278 76.9376 132.68C77.3213 133.802 77.4077 134.992 78.3677 135.215C80.0643 135.61 85.6609 133.374 87.2556 132.505C90.6284 130.668 93.2452 127.75 96.1098 125.791C96.147 124.838 96.1832 123.885 96.2213 122.932C94.4992 122.075 92.5089 121.466 89.9806 121.356C91.6956 120.494 94.2186 120.506 95.7815 119.481C95.7965 119.099 95.8124 118.718 95.8257 118.339C92.9726 118.12 91.885 116.85 90.0045 115.823ZM60.6119 110.489C58.0579 113.079 67.7752 116.611 70.8691 116.801C70.8518 115.161 71.8041 113.616 71.6123 112.44C67.9377 111.795 63.1085 112.221 60.6119 110.489ZM92.0735 111.705C92.0611 111.958 91.731 111.866 91.677 112.072C94.9629 114.638 97.4036 115.168 101.876 114.947C103.893 113.485 105.681 111.775 107.781 110.405C102.947 110.837 96.8611 113.837 92.0735 111.705ZM120.951 120.454C120.813 117.576 120.057 111.657 118.276 110.621C114.539 108.442 107.896 115.022 105.081 116.025C105.388 116.906 105.893 117.603 105.932 118.729C107.597 118.32 109.623 118.6 111.066 119.308C109.397 119.495 107.548 119.482 106.444 120.276C106.04 121.444 106.543 123.036 106.274 124.657C110.234 125.773 114.756 126.367 119.761 126.514C120.735 125.25 121.066 122.841 120.951 120.454ZM56.3123 112.994C55.5102 112.423 50.0847 105.37 49.3415 105.663C39.524 109.531 30.3443 116.22 22.1412 122.546C29.9623 139.314 33.1195 159.856 33.6774 179.656C42.6369 183.843 50.5064 189.879 62.6642 190.509C61.2573 180.564 59.9731 171.691 59.1745 162.328C56.1197 161.041 51.737 162.386 48.8783 161.929C48.854 158.487 53.2443 160.421 53.61 158.107C53.8855 156.356 51.1944 156.223 52.0707 153.466C54.3055 154.278 55.4792 156.071 57.8626 156.744C60.0405 151.984 57.8322 143.561 58.1461 139.582C58.2055 138.835 58.5194 135.443 60.1943 136.039C61.6766 136.565 60.1096 145.059 60.2721 148.825C60.42 152.294 59.8527 155.651 61.259 157.829C73.0071 156.231 84.9454 155.199 97.6567 154.85C94.8602 153.651 91.5381 152.517 87.8958 150.466C85.9213 149.353 79.6972 147.039 79.1275 145.166C78.2184 142.18 81.5127 140.589 82.0762 138.03C76.146 141.261 74.989 134.932 73.5861 130.449C72.3151 126.388 71.5915 123.354 71.2797 121.012C66.1712 118.579 60.7093 116.115 56.3123 112.994ZM115.763 106.516C123.943 102.553 125.417 121.327 122.211 127.374C122.706 129.178 124.411 129.869 125.106 131.49C120.542 139.66 115.472 147.286 110.814 155.36C114.279 153.205 119.227 154.974 123.304 153.361C124.795 152.772 125.874 149.364 127.002 146.637C130.105 139.135 133.364 129.677 134.813 122.518C135.141 120.886 136.033 117.332 135.833 115.88C135.476 113.281 131.946 111.353 130.15 109.746C126.843 106.777 124.759 104.164 121.309 101.388C119.91 103.451 116.907 104.838 115.763 106.516ZM37.6054 34.042C33.7078 38.3267 34.5237 46.355 34.9955 52.0667C42.0406 47.6388 51.3914 52.4169 51.3032 59.9483C54.6668 59.859 52.5598 55.7511 51.9514 53.1048C49.9631 44.4611 55.3011 35.0703 52.1934 27.1658C46.1594 27.6229 41.2023 30.0853 37.6054 34.042ZM65.4937 9.17372C56.67 11.6724 45.3615 18.0782 41.7357 25.9978C44.5433 25.5902 46.4923 24.1755 49.262 24.0004C50.3087 23.9323 51.68 24.439 52.883 24.1401C55.2804 23.546 57.3037 18.1755 59.1123 16.1773C60.8753 14.2259 62.9943 13.3921 64.4445 11.6132C65.3762 11.164 66.7537 11.1949 66.8066 9.79707C66.4028 9.3656 65.9776 9.03668 65.4937 9.17372ZM111.426 11.5238C102.267 6.36116 86.7654 2.47787 77.0233 7.33022C69.1624 11.2462 58.5367 17.7254 54.9139 25.9359C58.2982 33.859 53.9115 41.1189 53.6315 49.1631C53.4828 53.4434 55.6485 57.1799 55.8145 61.8395C54.6564 63.7484 51.1183 63.9836 48.6691 63.8528C47.8446 59.7308 46.4014 55.0977 42.153 54.6326C36.1415 53.9757 31.7461 58.9465 31.473 64.141C31.1498 70.2498 36.1691 80.3745 43.2833 79.6715C46.0315 79.4001 46.7067 76.6477 49.701 76.6759C51.3239 79.9111 47.1976 80.927 46.7731 83.2409C46.6624 83.8386 47.1153 86.1746 47.3786 87.2701C48.6708 92.6043 51.5515 99.508 54.3868 103.569C57.9854 108.72 65.0554 109.496 72.6615 110.001C74.02 107.077 79.0245 107.318 82.2854 108.083C78.3774 106.536 74.7442 102.787 71.7332 99.469C68.2746 95.6618 64.7712 91.5778 64.5942 86.6017C71.13 95.6609 76.5297 103.572 88.4144 107.557C97.4071 110.571 107.91 106.176 114.82 101.328C117.687 99.3134 119.398 96.1163 121.436 93.1896C129.062 82.2303 132.62 66.5875 131.838 51.4257C131.516 45.1729 131.53 38.9412 129.43 34.7343C127.235 30.3355 119.812 26.4001 115.467 30.3789C114.662 26.1012 119.081 23.4558 124.271 24.9951C120.57 20.2232 116.686 14.4894 111.426 11.5238ZM128.489 152.609C135.645 149.054 149.017 143.041 153.504 152.622C155.159 156.154 157.102 162.123 157.959 165.769C159.171 170.912 156.646 181.722 151.355 183.448C146.681 184.972 141.228 184.879 135.599 183.749C134.936 183.199 134.198 182.238 133.682 181.237C129.663 181.082 125.899 181.453 122.724 183.104C123.025 186.074 121.014 186.55 119.129 187.162C117.732 192.698 121.925 199.927 120.921 204.975C120.205 208.571 115.777 209.127 112.522 209.8C112.416 211.798 112.665 213.466 112.887 215.157C112.143 217.897 108.804 219.457 105.642 219.839C95.2354 221.089 79.4352 221.65 69.4258 218.054C66.6327 211.209 64.4323 202.884 62.1059 195.068C52.3438 196.109 44.4483 190.859 37.005 187.419C34.4279 186.226 30.8629 185.568 29.9001 183.519C28.9668 181.534 29.3487 177.732 29.1171 174.139C28.5277 164.964 28.0231 156.115 25.598 146.72C24.5092 142.505 22.6113 138.785 21.2873 134.723C20.0636 130.958 17.9255 126.305 17.3679 122.551C16.5411 116.987 21.7851 116.678 25.1383 114.267C30.3218 110.538 34.3906 108.476 40.0045 105.111C41.6672 104.114 46.6815 101.592 47.2518 100.43C48.3856 98.1269 45.3056 94.8793 44.4822 93.0738C43.1796 90.2188 42.5003 87.7935 42.3137 84.9766C37.6044 84.233 34.0345 81.4328 31.8781 78.2754C28.311 73.0499 25.8372 63.3824 28.9235 56.0287C29.1655 55.4496 30.3726 54.3108 30.5507 53.4213C30.9019 51.6698 29.8897 49.3408 29.8268 47.4779C29.5025 37.92 31.4454 29.6848 37.8854 26.8024C40.4999 16.3965 49.8572 12.9368 58.6732 7.76524C61.9687 5.83243 65.6015 4.59724 69.3532 3.21793C82.8118 -1.73079 103.461 -0.798859 114.631 7.64145C119.367 11.2206 126.938 18.7776 129.646 24.2489C136.798 38.6936 136.29 62.8342 131.288 80.4054C130.615 82.7644 129.64 86.2321 128.278 89.0659C127.328 91.0446 124.377 95.004 124.735 96.7511C125.104 98.5575 131.465 103.382 132.828 104.696C135.284 107.063 139.95 110.205 140.327 113.191C140.734 116.37 138.926 120.718 138.01 123.786C134.948 134.022 131.96 143.483 128.489 152.609Z" fill="#231F20"/>
<path fill-rule="evenodd" clip-rule="evenodd" d="M80.7425 81.7529C81.1307 81.2365 83.2653 80.4523 86.2521 81.8891C86.2521 81.8891 82.7122 82.4788 83.0068 88.3754L81.5317 88.0801C81.5317 88.0801 80.0073 82.7334 80.7425 81.7529Z" fill="#F7E4CD"/>
<path fill-rule="evenodd" clip-rule="evenodd" d="M106.606 132.435C106.606 133.329 105.88 134.055 104.983 134.055C104.088 134.055 103.361 133.329 103.361 132.435C103.361 131.54 104.088 130.813 104.983 130.813C105.88 130.813 106.606 131.54 106.606 132.435Z" fill="#1D1919"/>
<path fill-rule="evenodd" clip-rule="evenodd" d="M108.228 139.95C108.228 140.845 107.502 141.571 106.605 141.571C105.71 141.571 104.983 140.845 104.983 139.95C104.983 139.055 105.71 138.328 106.605 138.328C107.502 138.328 108.228 139.055 108.228 139.95Z" fill="#1D1919"/>
</svg>
